<svg viewBox="0 0 39 32" xmlns="http://www.w3.org/2000/svg"><g fill="#FFF" fill-rule="evenodd"><path d="M35.72 19.615a.89.89 0 0 1-.888-.892c0-9.498-6.878-16.94-15.66-16.94S3.51 9.226 3.51 18.723a.89.89 0 0 1-.887.893.89.89 0 0 1-.887-.892C1.738 8.224 9.396 0 19.17 0c9.778 0 17.434 8.224 17.434 18.723a.888.888 0 0 1-.885.892z"/><path d="M5.354 29.956a.89.89 0 0 1-.887-.892V18.528a.89.89 0 0 1 .887-.892c.49 0 .886.4.886.892v10.536a.89.89 0 0 1-.886.892zm4.378 0a.89.89 0 0 1-.886-.892v-10.54a.89.89 0 0 1 .886-.89c.49 0 .887.398.887.89v10.54a.89.89 0 0 1-.89.892z"/><path d="M7.55 31.74c-1.692 0-3.07-1.2-3.07-2.676a.89.89 0 0 1 .888-.892c.49 0 .886.4.886.892 0 .484.593.893 1.296.893.703 0 1.297-.41 1.297-.893a.89.89 0 0 1 .886-.892c.49 0 .887.4.887.892 0 1.476-1.377 2.677-3.07 2.677zm2.182-12.393a.89.89 0 0 1-.886-.892c0-.484-.594-.893-1.297-.893s-1.3.41-1.3.893a.89.89 0 0 1-.886.892.89.89 0 0 1-.886-.892c0-1.476 1.376-2.677 3.07-2.677 1.69 0 3.07 1.202 3.07 2.677a.89.89 0 0 1-.89.892z"/><path d="M5.534 30.65c-.03 0-.06 0-.09-.004-3.28-.336-5.32-2.986-5.32-6.916s2.038-6.58 5.318-6.915a.887.887 0 0 1 .972.797.89.89 0 0 1-.793.978c-3.452.352-3.72 4.023-3.72 5.14s.267 4.787 3.72 5.142a.89.89 0 0 1-.086 1.777zm27.588-.694a.89.89 0 0 1-.887-.892V18.528a.89.89 0 0 1 .887-.892c.49 0 .886.4.886.892v10.536a.89.89 0 0 1-.886.892zm-4.38 0a.89.89 0 0 1-.885-.892v-10.54a.89.89 0 0 1 .886-.89c.49 0 .886.398.886.89v10.54a.89.89 0 0 1-.89.892z"/><path d="M30.926 31.74c-1.693 0-3.07-1.2-3.07-2.676a.89.89 0 0 1 .887-.892c.49 0 .886.4.886.892 0 .484.59.893 1.293.893.702 0 1.296-.41 1.296-.893a.89.89 0 0 1 .886-.892c.49 0 .887.4.887.892 0 1.476-1.377 2.677-3.07 2.677zm2.182-12.393a.89.89 0 0 1-.886-.892c0-.484-.593-.893-1.296-.893-.703 0-1.297.41-1.297.893a.89.89 0 0 1-.89.892.89.89 0 0 1-.886-.892c0-1.476 1.376-2.677 3.07-2.677 1.69 0 3.068 1.202 3.068 2.677a.89.89 0 0 1-.887.892z"/><path d="M32.942 30.65a.892.892 0 0 1-.088-1.78c3.455-.354 3.724-4.024 3.724-5.14 0-1.118-.27-4.79-3.724-5.143a.893.893 0 0 1-.793-.978.883.883 0 0 1 .976-.8c3.28.334 5.317 2.984 5.317 6.914s-2.036 6.58-5.316 6.916c-.03.007-.06.007-.09.007z"/><path d="M32.346 17.928a.667.667 0 0 1-.66-.608c-.635-6.954-6.012-12.2-12.508-12.2-6.57 0-11.828 5.102-12.503 12.13a.667.667 0 0 1-.726.602.668.668 0 0 1-.6-.73c.73-7.605 6.673-13.34 13.825-13.34 7.187 0 13.134 5.767 13.83 13.415a.667.667 0 0 1-.662.73z"/></g></svg>