<?xml version="1.0" encoding="UTF-8" standalone="no"?>
<svg width="51px" height="44px" viewBox="0 0 51 44" version="1.1" xmlns="http://www.w3.org/2000/svg" xmlns:xlink="http://www.w3.org/1999/xlink">
    <!-- Generator: Sketch 3.7 (28169) - http://www.bohemiancoding.com/sketch -->
    <title>show_playlist</title>
    <desc>Created with Sketch.</desc>
    <defs></defs>
    <g id="Page-1" stroke="none" stroke-width="1" fill="none" fill-rule="evenodd">
        <g id="15-inch-Retina-Display" transform="translate(-1384.000000, -1384.000000)" fill="#FFFFFF">
            <g id="show_playlist" transform="translate(1384.000000, 1384.000000)">
                <path d="M15.28,26.72 C15.28,28.0266732 14.6933392,29.2666608 13.52,30.44 C12.3999944,31.506672 11.1333404,32.2266648 9.72,32.6 C8.5999944,32.8933348 7.5866712,33.04 6.68,33.04 C4.7333236,33.04 3.3866704,32.4133396 2.64,31.16 C2.3466652,30.6533308 2.2,30.0933364 2.2,29.48 C2.2,28.413328 2.6266624,27.3666718 3.48,26.34 C4.3333376,25.3133282 5.4666596,24.5466692 6.88,24.04 C7.9200052,23.6933316 8.9466616,23.52 9.96,23.52 C11.2666732,23.52 12.3999952,23.7733308 13.36,24.28 L13.36,0.8 L13.96,0.8 L14.88,2 C15.7866712,2.7733372 16.6799956,3.5466628 17.56,4.32 C19.5333432,6.1066756 21.1066608,7.8533248 22.28,9.56 C23.9066748,11.960012 24.6933336,14.2133228 24.64,16.32 C24.6133332,17.520006 24.1066716,19.1599896 23.12,21.24 C22.3466628,22.9200084 21.4733382,24.4733262 20.5,25.9 C19.5266618,27.3266738 19.04,27.8266688 19.04,27.4 C19.04,27.2399992 19.1333324,26.9466688 19.32,26.52 C20.0133368,24.9733256 20.7066632,23.4133412 21.4,21.84 C22.3866716,19.4666548 22.8933332,17.6266732 22.92,16.32 C22.9733336,14.6399916 22.33334,13.000008 21,11.4 C20.0133284,10.1733272 18.7733408,9.093338 17.28,8.16 C15.94666,7.3333292 15.28,7.0399988 15.28,7.28 L15.28,26.72 Z" id="E"></path>
                <rect id="Rectangle-15" x="27.8181818" y="2.27272727" width="22.4090909" height="5.40909091"></rect>
                <rect id="Rectangle-15-Copy" x="27.8181818" y="11.5454545" width="22.4090909" height="5.40909091"></rect>
                <rect id="Rectangle-15-Copy-2" x="27.8181818" y="20.8181818" width="22.4090909" height="5.40909091"></rect>
                <rect id="Rectangle-15-Copy-3" x="27.8181818" y="29.8181818" width="22.4090909" height="5.40909091"></rect>
                <rect id="Rectangle-15-Copy-4" x="0" y="38.5909091" width="51" height="5.40909091"></rect>
            </g>
        </g>
    </g>
</svg>