<svg viewBox="0 0 30 30" xmlns="http://www.w3.org/2000/svg"><path d="M15 0C6.715 0 0 6.715 0 15s6.715 15 15 15 15-6.715 15-15S23.285 0 15 0zm0 1.25c7.58 0 13.75 6.167 13.75 13.75a13.68 13.68 0 0 1-3.178 8.78c-1.37-.57-4.607-1.694-6.61-2.286-.17-.054-.198-.063-.198-.774 0-.588.242-1.178.478-1.68a8.606 8.606 0 0 0 .667-2.278c.3-.353.713-1.05.98-2.375.232-1.17.123-1.595-.03-1.993a1.463 1.463 0 0 1-.047-.126c-.06-.274.022-1.697.222-2.803.138-.758-.036-2.37-1.08-3.703-.66-.843-1.92-1.877-4.224-2.02h-1.26c-2.265.143-3.526 1.177-4.185 2.02-1.043 1.333-1.217 2.946-1.08 3.703.203 1.106.282 2.53.225 2.8-.01.046-.03.087-.047.13-.153.4-.263.823-.03 1.992.266 1.326.68 2.022.985 2.375.107.82.41 1.735.667 2.28.186.396.274.938.274 1.704 0 .71-.03.72-.19.77-2.07.612-5.368 1.803-6.598 2.34A13.684 13.684 0 0 1 1.25 15C1.25 7.42 7.417 1.25 15 1.25zM5.4 24.83c1.408-.573 4.213-1.574 6.057-2.118 1.072-.338 1.072-1.24 1.072-1.966 0-.602-.045-1.488-.397-2.237-.242-.518-.518-1.398-.58-2.086a.617.617 0 0 0-.21-.416c-.177-.155-.537-.723-.767-1.868-.183-.906-.105-1.104-.03-1.297.03-.082.06-.163.085-.253.15-.548-.016-2.35-.2-3.35-.08-.435.023-1.67.836-2.71.73-.932 1.832-1.45 3.24-1.54l1.185-.002c1.447.093 2.55.61 3.28 1.544.814 1.04.91 2.275.833 2.71-.18 1-.35 2.803-.2 3.35.026.092.055.173.087.255.076.19.15.39-.03 1.294-.23 1.147-.59 1.714-.766 1.87a.63.63 0 0 0-.21.415c-.06.69-.336 1.567-.578 2.08-.278.59-.597 1.374-.597 2.21 0 .728 0 1.63 1.082 1.97 1.764.523 4.584 1.49 6.072 2.077A13.706 13.706 0 0 1 15 28.75a13.71 13.71 0 0 1-9.6-3.916v-.003z" fill="#FFF" fill-rule="evenodd"/></svg>