<svg viewBox="0 0 29 26" xmlns="http://www.w3.org/2000/svg"><g fill="#FFF" fill-rule="evenodd"><path d="M13.635 2.274L5.95 8.4H0v4.743l-.004.003.004.003v4.69h5.98l7.656 6.01v-6.01h.002V8.4h-.002V2.274zm2.452 5.456a8.668 8.668 0 0 1 1.745 5.24c0 1.948-.627 3.79-1.812 5.33l.832.64a9.698 9.698 0 0 0 2.03-5.97 9.7 9.7 0 0 0-1.956-5.87l-.84.63zm4.226-3.803l-.81.668a13.398 13.398 0 0 1 3.058 8.512c0 3.066-1.007 5.95-2.915 8.34l.82.654a14.276 14.276 0 0 0 3.146-8.992 14.44 14.44 0 0 0-3.296-9.18z"/><path d="M23.578.52l-.787.694A17.987 17.987 0 0 1 27.28 13.11c0 4.3-1.538 8.46-4.33 11.717l.797.682a19.05 19.05 0 0 0 4.582-12.398C28.327 8.47 26.64 4 23.577.52z"/></g></svg>