<svg viewBox="0 0 29 26" xmlns="http://www.w3.org/2000/svg"><g fill="#FFF" fill-rule="evenodd"><path d="M13.635 2.274L5.95 8.4H0v4.743l-.004.003.004.003v4.692h5.98l7.656 6.008v-6.008h.002v-9.44h-.002V2.273zM16.087 7.73a8.668 8.668 0 0 1 1.745 5.24c0 1.948-.627 3.79-1.812 5.33l.832.64a9.698 9.698 0 0 0 2.03-5.97 9.7 9.7 0 0 0-1.956-5.87l-.84.63zM20.313 3.927l-.81.668a13.398 13.398 0 0 1 3.058 8.512c0 3.066-1.008 5.95-2.916 8.34l.82.654a14.276 14.276 0 0 0 3.146-8.993c0-3.346-1.17-6.606-3.297-9.18z"/><path d="M23.578.52l-.787.694a17.987 17.987 0 0 1 4.487 11.897c0 4.3-1.538 8.46-4.33 11.716l.797.682a19.05 19.05 0 0 0 4.582-12.397C28.326 8.47 26.64 4 23.578.52z"/></g></svg>